<svg width="20" height="20" viewBox="0 0 20 20" fill="none" xmlns="http://www.w3.org/2000/svg">
<g clip-path="url(#clip0_191_208)">
<path d="M11.1783 9.99995L19.7558 1.42245C19.9076 1.26528 19.9916 1.05478 19.9897 0.836285C19.9878 0.617788 19.9001 0.408777 19.7456 0.254271C19.5911 0.0997638 19.3821 0.0121231 19.1636 0.0102244C18.9451 0.00832569 18.7346 0.092321 18.5774 0.244119L9.99994 8.82162L1.42244 0.244119C1.26528 0.092321 1.05477 0.00832569 0.836277 0.0102244C0.617779 0.0121231 0.408769 0.0997638 0.254262 0.254271C0.0997552 0.408777 0.0121144 0.617788 0.0102157 0.836285C0.00831707 1.05478 0.0923124 1.26528 0.244111 1.42245L8.82161 9.99995L0.244111 18.5775C0.0878849 18.7337 0.00012207 18.9456 0.00012207 19.1666C0.00012207 19.3876 0.0878849 19.5995 0.244111 19.7558V19.7558C0.400384 19.912 0.612307 19.9998 0.833277 19.9998C1.05425 19.9998 1.26617 19.912 1.42244 19.7558L9.99994 11.1783L18.5774 19.7558C18.7337 19.912 18.9456 19.9998 19.1666 19.9998C19.3876 19.9998 19.5995 19.912 19.7558 19.7558C19.912 19.5995 19.9998 19.3876 19.9998 19.1666C19.9998 18.9456 19.912 18.7337 19.7558 18.5775L11.1783 9.99995Z" fill="white"/>
</g>
<defs>
<clipPath id="clip0_191_208">
<rect width="20" height="20" fill="white"/>
</clipPath>
</defs>
</svg>
