<svg width="106" height="93" viewBox="0 0 106 93" fill="none" xmlns="http://www.w3.org/2000/svg">
<path fill-rule="evenodd" clip-rule="evenodd" d="M55.129 18.4024C59.3932 18.9504 63.4094 20.2885 67.0271 22.2637L70.6857 17.2323L77.7743 22.378L74.112 27.4143C77.1476 30.284 79.6544 33.7065 81.4705 37.5209L87.3888 35.5996L90.0964 43.9254L84.1774 45.8469C84.5545 47.8728 84.7523 49.9617 84.7523 52.0969C84.7523 54.2319 84.5551 56.3211 84.178 58.347L90.0964 60.2683L87.3888 68.5941L81.4718 66.6731C79.6555 70.4878 77.1491 73.911 74.1128 76.7806L77.7743 81.8157L70.6857 86.9614L67.0268 81.9297C63.4089 83.9047 59.3931 85.2433 55.129 85.7913V92.0116H46.3671V85.7916C42.1032 85.2434 38.0864 83.9061 34.4686 81.9308L30.8105 86.9614L23.7219 81.8157L27.3843 76.7793C24.3486 73.9095 21.8413 70.4873 20.0253 66.6729L14.1074 68.5941L11.3998 60.2683L17.3201 58.3464C16.9431 56.3204 16.7438 54.232 16.7438 52.0969C16.7438 49.9618 16.9411 47.8726 17.3182 45.8467L11.3998 43.9254L14.1074 35.5996L20.0244 37.5206C21.8406 33.7059 24.3471 30.2827 27.3834 27.4131L23.7219 22.378L30.8105 17.2323L34.4693 22.264C38.0873 20.2891 42.1031 18.9504 46.3671 18.4024V12.1821H55.129V18.4024ZM50 54V75C48.1667 74.8333 44.1 74.3 42.5 73.5C40.9 72.7 39.5 71.8333 39 71.5C38.5 71.1667 37.3 70.3 36.5 69.5C36.1458 69.1458 35.7915 68.8542 35.4595 68.581C34.8542 68.083 34.3229 67.6458 34 67C33.807 66.614 33.465 66.1535 33.089 65.6473C32.491 64.842 31.807 63.921 31.5 63C31.2222 62.1665 30.79 61.2382 30.3749 60.3468C30.0431 59.6339 29.7222 58.9447 29.5 58.3464C29.1 57.2693 29 55 29 54H50ZM29.5 48L29 51.5H50V31H49L46.3671 31.5L44 32L42.5 32.5L41 33L39.5 34L37 36L35 37.5209L33.5 39.5L32 41.5L30.8105 43.9254L30 46.5L29.5 48ZM53 51V31H54L55 31.5H56H57L58 32H59L60 32.5L61 33L62 33.5L63 34L64 34.5L64.5 35L65 35.5L66 36L66.5 36.5L67 37L68 38L69 39L69.5 40L70 41L70.5 42L71 42.5L71.5 43.5L72 44.5L72.5 45.5V46V47L73 48V49V50V52H53V51ZM53 61V54H73L73.5 55L73 58L72 61.5L69 66.5L68 68L66.5 69.5L64.5 71L60 73.5L56 74.5L53 75V61Z" fill="url(#paint0_linear_264_172)"/>
<path d="M49.735 54.2632V74.7883C38.5064 74.5268 29.4529 65.4808 29.1909 54.2632H49.735Z" stroke="white"/>
<path d="M73.3298 54.2632C73.0679 65.4808 64.0143 74.5268 52.7858 74.7883V54.2632H73.3298Z" stroke="white"/>
<path d="M52.7858 51.5969V31.0717C64.0143 31.3332 73.0679 40.3793 73.3298 51.5969H52.7858Z" stroke="white"/>
<path d="M29.1909 51.5969C29.4529 40.3793 38.5064 31.3332 49.735 31.0717V51.5969H29.1909Z" stroke="white"/>
<path fill-rule="evenodd" clip-rule="evenodd" d="M52.9959 0.350098L79.3148 4.97083L105.634 9.59148L79.6279 15.7317L53.6221 21.8721L27.3032 17.2513L0.984253 12.6307L26.9901 6.49047L52.9959 0.350098Z" fill="#48887B"/>
<path fill-rule="evenodd" clip-rule="evenodd" d="M77.7188 16.1826L53.6221 21.8722L27.3032 17.2515L23.3344 16.5548L23.729 30.1195C31.4809 32.6242 42.1856 34.0049 53.9652 33.6629C62.9823 33.4009 71.3122 32.1678 78.1289 30.2804L77.7188 16.1826Z" fill="url(#paint1_linear_264_172)"/>
<path fill-rule="evenodd" clip-rule="evenodd" d="M53.6221 21.8721L77.7187 16.1824L79.6279 15.7317L105.634 9.59148L79.3148 4.97083L52.9959 0.350098L26.9901 6.49047L0.984253 12.6307L23.3343 16.5546L27.3032 17.2513L53.6221 21.8721Z" fill="url(#paint2_linear_264_172)"/>
<path d="M72.5114 65.9458H63.8151V74.6345H72.5114V65.9458Z" fill="#52658C"/>
<path fill-rule="evenodd" clip-rule="evenodd" d="M63.815 74.6348L55.1188 83.3234H63.815V74.6348Z" fill="#6B809B"/>
<path fill-rule="evenodd" clip-rule="evenodd" d="M63.815 83.3234V74.6348L55.1188 83.3234H63.815Z" fill="#585570"/>
<path fill-rule="evenodd" clip-rule="evenodd" d="M63.815 83.3232L55.1188 92.012H63.815V83.3232Z" fill="#585570"/>
<path fill-rule="evenodd" clip-rule="evenodd" d="M72.5115 65.9458C77.3143 65.9458 81.2078 69.8359 81.2078 74.6345H88.9419V73.8291V65.9458H72.5115Z" fill="#585570"/>
<path fill-rule="evenodd" clip-rule="evenodd" d="M72.5114 74.6345V65.9458H63.8151V74.6345H72.5114Z" fill="#57A695"/>
<path fill-rule="evenodd" clip-rule="evenodd" d="M63.8151 74.6345H72.5114V65.9458H63.8151V74.6345Z" fill="#51A8B1"/>
<path fill-rule="evenodd" clip-rule="evenodd" d="M81.2078 74.6346C81.2078 79.4332 77.3143 83.3232 72.5115 83.3232V91.0699C81.5964 91.0699 88.9612 83.7116 88.9612 74.6346C88.9612 74.3645 88.9548 74.0959 88.9419 73.8291V74.6346H81.2078Z" fill="#51A8B1"/>
<path fill-rule="evenodd" clip-rule="evenodd" d="M72.5114 83.3234V74.6348L63.8151 83.3234H72.5114Z" fill="#585570"/>
<defs>
<linearGradient id="paint0_linear_264_172" x1="36.0748" y1="77.2211" x2="89.1305" y2="25.8456" gradientUnits="userSpaceOnUse">
<stop stop-color="#606062"/>
<stop offset="0.74902" stop-color="#AFAFB0"/>
<stop offset="1" stop-color="#FEFEFE"/>
</linearGradient>
<linearGradient id="paint1_linear_264_172" x1="33.2824" y1="25.9359" x2="87.6318" y2="24.3547" gradientUnits="userSpaceOnUse">
<stop stop-color="#48887B"/>
<stop offset="0.639216" stop-color="#A3C3BD"/>
<stop offset="1" stop-color="white"/>
</linearGradient>
<linearGradient id="paint2_linear_264_172" x1="1.06513" y1="20.5722" x2="95.0876" y2="0.891531" gradientUnits="userSpaceOnUse">
<stop stop-color="#1CB7C7"/>
<stop offset="0.611765" stop-color="#8DDBE3"/>
<stop offset="1" stop-color="white"/>
</linearGradient>
</defs>
</svg>
